# xmcd
#
# Track frame offsets:
#	150
#	12088
#	34212
#	61671
#	87365
#	115859
#	137063
#	165405
#	181080
#	204422
#	220502
#	242117
#	256374
#	271207
#	296216
#
# Disc length: 4119 seconds
#
# Revision: 1
# Processed by: cddbd v1.5.1PL2 Copyright (c) Steve Scherf et al.
# Submitted via: EasyCDDAExtractor 9.0.0.1
#
DISCID=cc10150f
DTITLE=Ozzy Osbourne - Madison Square Garden New York City Late Show Source 2
DYEAR=1981
DGENRE=Hard Rock
TTITLE0=Carmina Burana
TTITLE1=I Don't Know
TTITLE2=Crazy Train
TTITLE3=Believer
TTITLE4=Mr Crowley
TTITLE5=Flying High Again
TTITLE6=Revelation (Mother Earth)
TTITLE7=Steal Away (The Night)
TTITLE8=Tommy Aldridge Drum Solo
TTITLE9=No Bone Movies
TTITLE10=Suicide Solution
TTITLE11=Randy Rhoads Guitar Solo
TTITLE12=Iron Man
TTITLE13=Children Of The Grave
TTITLE14=Paranoid
EXTD=
EXTT0=
EXTT1=
EXTT2=
EXTT3=
EXTT4=
EXTT5=
EXTT6=
EXTT7=
EXTT8=
EXTT9=
EXTT10=
EXTT11=
EXTT12=
EXTT13=
EXTT14=
PLAYORDER=
